<svg width="144" height="144" viewBox="0 0 144 144" fill="none" xmlns="http://www.w3.org/2000/svg">
<rect width="144" height="144" fill="#D35E49"/>
<path d="M43.3516 85.456V134H27V10H72.7335C86.3031 10 96.9203 13.4634 104.585 20.3901C112.307 27.3168 116.168 36.4863 116.168 47.8984C116.168 59.935 112.392 69.2179 104.841 75.7473C97.3461 82.2198 86.587 85.456 72.5632 85.456H43.3516ZM43.3516 72.0852H72.7335C81.4771 72.0852 88.1767 70.0412 92.8324 65.9533C97.4881 61.8086 99.8159 55.8471 99.8159 48.0687C99.8159 40.6877 97.4881 34.783 92.8324 30.3544C88.1767 25.9258 81.7894 23.6264 73.6703 23.456H43.3516V72.0852Z" fill="black"/>
<rect y="134" width="144" height="10" fill="#9B51E0"/>
<rect width="144" height="10" fill="#9B51E0"/>
</svg>
