<svg width="144" height="171" viewBox="0 0 144 171" fill="none" xmlns="http://www.w3.org/2000/svg">
<path d="M65.8541 131.329H93.8733C96.8509 130.959 99.6024 129.551 101.643 127.351C103.684 125.151 104.882 122.302 105.027 119.305V78.8599C105.027 76.2862 104.005 73.8179 102.185 71.9981C100.365 70.1782 97.897 69.1558 95.3233 69.1558C92.7496 69.1558 90.2814 70.1782 88.4615 71.9981C86.6416 73.8179 85.6192 76.2862 85.6192 78.8599V104.537C85.6075 106.456 84.8399 108.293 83.4827 109.65C82.1256 111.008 80.2883 111.775 78.369 111.787H65.7202C63.1463 111.799 60.6815 112.828 58.8635 114.65C57.0455 116.472 56.022 118.939 56.0161 121.513V121.647C56.0397 124.235 57.0887 126.707 58.9331 128.522C60.7774 130.337 63.2664 131.347 65.8541 131.329V131.329ZM49.0559 101.681C46.3343 101.681 43.7242 100.6 41.7997 98.6757C39.8753 96.7512 38.7941 94.1411 38.7941 91.4195V50.9745C38.9577 47.8394 40.2181 44.8616 42.355 42.5617C44.4918 40.2617 47.369 38.7861 50.4837 38.3927H78.5698C81.2983 38.3981 83.9158 39.4738 85.8597 41.3885C87.8036 43.3032 88.9187 45.9041 88.9655 48.6322C88.9802 49.9912 88.7259 51.3398 88.2174 52.6002C87.7088 53.8606 86.956 55.008 86.0022 55.9763C85.0484 56.9446 83.9125 57.7147 82.6599 58.2422C81.4074 58.7698 80.0628 59.0443 78.7036 59.0501H65.9879C64.213 59.0501 62.5107 59.7552 61.2556 61.0103C60.0005 62.2654 59.2954 63.9677 59.2954 65.7426V91.4195C59.2954 94.1372 58.2173 96.744 56.2977 98.6678C54.3781 100.592 51.7737 101.675 49.0559 101.681V101.681Z" fill="#4F0599"/>
<path d="M78.5698 38.9727H50.5506C47.5713 39.338 44.8172 40.7455 42.7758 42.9461C40.7345 45.1467 39.5374 47.9985 39.3964 50.9969V91.4418C39.3335 92.7538 39.5375 94.0649 39.9962 95.2958C40.4549 96.5266 41.1588 97.6515 42.065 98.6023C42.9713 99.5531 44.0612 100.31 45.2686 100.827C46.476 101.344 47.7759 101.611 49.0894 101.611C50.4029 101.611 51.7028 101.344 52.9102 100.827C54.1176 100.31 55.2075 99.5531 56.1138 98.6023C57.02 97.6515 57.7238 96.5266 58.1825 95.2958C58.6413 94.0649 58.8453 92.7538 58.7823 91.4418V65.7426C58.7794 64.7907 58.9651 63.8477 59.3286 62.968C59.6922 62.0883 60.2265 61.2893 60.9006 60.6172C61.5748 59.9452 62.3754 59.4134 63.2562 59.0525C64.137 58.6916 65.0807 58.5089 66.0325 58.5147H78.7036C81.2737 58.503 83.7352 57.4769 85.5525 55.6595C87.3699 53.8422 88.396 51.3807 88.4078 48.8106V48.6768C88.3611 46.0945 87.3055 43.6331 85.4668 41.8194C83.6281 40.0058 81.1525 38.9839 78.5698 38.9727V38.9727Z" fill="#4F0599"/>
<path d="M82.9868 20.7245C88.3092 20.7186 93.5803 21.7644 98.4972 23.8018C103.414 25.8393 107.88 28.8282 111.638 32.5968C115.397 36.3655 118.373 40.8396 120.397 45.7622C122.421 50.6847 123.452 55.9586 123.432 61.281V139.07C122.967 141.702 121.681 144.12 119.757 145.975C117.833 147.831 115.371 149.029 112.724 149.399H61.0132C55.701 149.402 50.4404 148.358 45.5321 146.326C40.6238 144.294 36.164 141.315 32.4078 137.559C28.6515 133.803 25.6725 129.343 23.641 124.435C21.6095 119.527 20.5653 114.266 20.5682 108.954V33.3064C20.5562 29.9806 21.8567 26.7844 24.1874 24.4119C26.5182 22.0394 29.6908 20.6823 33.0163 20.6353L82.9868 20.7245ZM83.1653 0.000102484H32.2355C14.4312 0.0380266 0.0111583 14.476 4.11924e-06 32.2802V109.333C-0.00293751 117.323 1.56966 125.234 4.62779 132.615C7.68592 139.996 12.1696 146.702 17.8221 152.348C23.4747 157.995 30.1852 162.471 37.5696 165.521C44.9541 168.571 52.8675 170.135 60.857 170.123H114.709C122.15 169.522 129.147 166.342 134.494 161.133C139.842 155.925 143.204 149.013 144 141.591V60.6786C143.994 52.6987 142.416 44.7982 139.354 37.4288C136.293 30.0594 131.809 23.3657 126.159 17.7303C120.51 12.0949 113.804 7.62834 106.427 4.58607C99.0498 1.5438 91.1452 -0.0145579 83.1653 0.000102484V0.000102484Z" fill="#4F0599"/>
</svg>
